<svg width="135" height="135" viewBox="0 0 135 135" fill="none" xmlns="http://www.w3.org/2000/svg">
<path d="M67.5005 72.5005C70.3373 72.5005 72.5812 70.3186 72.5812 67.2666C72.5812 64.2146 70.3373 62.0005 67.5005 62.0005C64.6637 62.0005 62.293 64.2146 62.293 67.2666C62.293 70.3186 64.6637 72.5005 67.5005 72.5005Z" fill="#00D8FF"/>
<path d="M40 67.2667C40 70.817 42.9919 74.033 48.4239 76.3234C48.9848 76.5594 49.5684 76.782 50.1688 76.9945C50.0521 77.6202 49.953 78.2384 49.8774 78.8423C49.1427 84.6947 50.4308 88.8959 53.5032 90.6706C54.5016 91.2476 55.6285 91.5332 56.8553 91.5332C59.4021 91.5332 62.3831 90.3027 65.5538 87.8989C66.0383 87.5311 66.5228 87.1363 67.0065 86.7231C67.4901 87.1363 67.9738 87.5311 68.4592 87.8989C71.6299 90.3036 74.61 91.5332 77.1576 91.5332C78.3844 91.5332 79.5113 91.2476 80.5097 90.6706C83.5822 88.8959 84.8694 84.6947 84.1355 78.8423C84.06 78.2384 83.9609 77.6202 83.8442 76.9945C84.4445 76.782 85.0281 76.5594 85.5891 76.3234C91.0211 74.033 94.0129 70.817 94.0129 67.2667C94.0129 63.7165 91.0211 60.5005 85.5891 58.2101C85.0281 57.974 84.4445 57.7515 83.8442 57.539C83.9609 56.9124 84.06 56.2951 84.1355 55.6912C84.8694 49.8379 83.5822 45.6376 80.5097 43.8628C77.4372 42.0873 73.1573 43.0717 68.4592 46.6345C67.9738 47.0024 67.4893 47.3972 67.0065 47.8104C66.5228 47.3972 66.0383 47.0024 65.5538 46.6345C60.8548 43.0717 56.5749 42.0873 53.5024 43.8628C50.4299 45.6376 49.1427 49.8379 49.8766 55.6912C49.9521 56.2951 50.0512 56.9124 50.1679 57.539C49.5684 57.7515 48.984 57.974 48.4239 58.2101C42.9919 60.5005 40 63.7165 40 67.2667ZM55.1155 87.8779C53.1061 86.7164 52.3973 83.0141 53.2732 77.9411C55.4094 78.4988 57.7127 78.9195 60.1234 79.1967C61.5677 81.147 63.0834 82.9326 64.6343 84.5049C64.2917 84.7913 63.9483 85.0685 63.6057 85.3288C60.0605 88.0174 56.9662 88.9463 55.1155 87.8779ZM55.1264 63.3234C54.6713 62.0871 54.2892 60.8885 53.9768 59.7378C55.1281 59.4338 56.3565 59.1659 57.6539 58.9416C57.2072 59.6488 56.7697 60.3711 56.3448 61.1077C55.9207 61.8435 55.5143 62.5826 55.1264 63.3234ZM59.1376 62.7195C60.0101 61.2085 60.9329 59.763 61.8927 58.394C63.5217 58.2504 65.2297 58.1731 67.0065 58.1731C68.7833 58.1731 70.4921 58.2512 72.1211 58.394C73.08 59.763 74.0037 61.2085 74.8753 62.7195C75.7646 64.2616 76.5522 65.7818 77.2433 67.2667C76.5522 68.7517 75.7646 70.2719 74.8753 71.814C74.0037 73.325 73.08 74.7713 72.1211 76.1395C70.4921 76.2831 68.7833 76.3604 67.0065 76.3604C65.2297 76.3604 63.5217 76.2822 61.8927 76.1395C60.9329 74.7713 60.0101 73.325 59.1376 71.814C58.2484 70.2719 57.4607 68.7517 56.7697 67.2667C57.4607 65.7818 58.2484 64.2616 59.1376 62.7195ZM67.0065 52.2132C67.8604 53.0741 68.706 54.0038 69.5348 55C68.6993 54.9655 67.8562 54.9479 67.0065 54.9479C66.1575 54.9479 65.3136 54.9655 64.479 55C65.3069 54.0038 66.1525 53.0741 67.0065 52.2132ZM77.6682 61.1077C77.2433 60.3711 76.8058 59.6488 76.3591 58.9416C77.6564 59.1659 78.8857 59.4338 80.0361 59.7387C79.7246 60.8885 79.3417 62.0871 78.8874 63.3234C78.4986 62.5826 78.0922 61.8435 77.6682 61.1077ZM78.8874 71.2101C79.3417 72.4473 79.7237 73.6458 80.0361 74.7956C78.8857 75.0997 77.6572 75.3676 76.3591 75.5918C76.8058 74.8846 77.2433 74.1623 77.6682 73.4257C78.0922 72.69 78.4986 71.9509 78.8874 71.2101ZM67.0065 82.3203C66.1525 81.4594 65.3069 80.5296 64.479 79.5335C65.3145 79.5671 66.1575 79.5856 67.0065 79.5856C67.8562 79.5856 68.6993 79.5671 69.5348 79.5335C68.706 80.5296 67.8604 81.4594 67.0065 82.3203ZM56.3448 73.4257C56.7697 74.1623 57.2072 74.8846 57.6539 75.5918C56.3565 75.3676 55.1281 75.0997 53.9768 74.7948C54.2884 73.645 54.6713 72.4473 55.1264 71.2101C55.5143 71.9509 55.9207 72.69 56.3448 73.4257ZM78.8975 87.8779C77.0476 88.9463 73.9525 88.0174 70.4073 85.3288C70.0647 85.0685 69.7221 84.7913 69.3786 84.5049C70.9287 82.9326 72.4452 81.147 73.8895 79.1967C76.3011 78.9195 78.6036 78.4988 80.7398 77.9411C81.6164 83.0141 80.9069 86.7164 78.8975 87.8779ZM90.7885 67.2667C90.7885 69.5891 87.9394 72.055 83.1119 73.8323C82.5258 71.7014 81.739 69.495 80.7725 67.2667C81.739 65.0385 82.5258 62.832 83.1119 60.7012C87.9394 62.4784 90.7885 64.9444 90.7885 67.2667ZM78.8975 46.6555C80.9069 47.8171 81.6164 51.5194 80.7398 56.5924C78.6036 56.0347 76.3011 55.6139 73.8895 55.3368C72.4452 53.3865 70.9296 51.6009 69.3786 50.0286C69.7221 49.7422 70.0647 49.465 70.4073 49.2046C73.9533 46.5161 77.0476 45.5872 78.8975 46.6555ZM55.1155 46.6555C55.6193 46.3649 56.2138 46.2221 56.8847 46.2221C58.6817 46.2221 61.0244 47.2477 63.6057 49.2046C63.9483 49.465 64.2917 49.7422 64.6343 50.0286C63.0842 51.6009 61.5677 53.3865 60.1234 55.3368C57.7127 55.6139 55.4094 56.0347 53.2732 56.5924C52.3973 51.5194 53.1061 47.8171 55.1155 46.6555ZM53.2404 67.2667C52.2739 69.495 51.4871 71.7014 50.901 73.8323C46.0744 72.055 43.2253 69.5891 43.2253 67.2667C43.2253 64.9444 46.0744 62.4784 50.901 60.7012C51.4871 62.832 52.2739 65.0385 53.2404 67.2667Z" fill="#00D8FF"/>
</svg>
